<svg xmlns="http://www.w3.org/2000/svg" xmlns:xlink="http://www.w3.org/1999/xlink" contentStyleType="text/css" height="668px" preserveAspectRatio="none" style="width:1644px;height:668px;background:#FFFFFF;" version="1.1" viewBox="0 0 1644 668" width="1644px" zoomAndPan="magnify"><defs/><g><!--cluster d77d5e503ad1439f585ac494268b351b--><g id="cluster_d77d5e503ad1439f585ac494268b351b"><polygon fill="none" points="16,16,26,6,550,6,550,550.37,540,560.37,16,560.37,16,16" style="stroke:#181818;stroke-width:1.0;"/><line style="stroke:#181818;stroke-width:1.0;" x1="540" x2="550" y1="16" y2="6"/><line style="stroke:#181818;stroke-width:1.0;" x1="16" x2="540" y1="16" y2="16"/><line style="stroke:#181818;stroke-width:1.0;" x1="540" x2="540" y1="16" y2="560.37"/><text fill="#000000" font-family="sans-serif" font-size="14" font-weight="bold" lengthAdjust="spacing" textLength="21" x="268.5" y="31.9951">Db</text></g><!--cluster b63d220aa4fcfcfb2b581071967490d9--><g id="cluster_b63d220aa4fcfcfb2b581071967490d9"><polygon fill="none" points="574,32.29,584,22.29,816,22.29,816,550.37,806,560.37,574,560.37,574,32.29" style="stroke:#181818;stroke-width:1.0;"/><line style="stroke:#181818;stroke-width:1.0;" x1="806" x2="816" y1="32.29" y2="22.29"/><line style="stroke:#181818;stroke-width:1.0;" x1="574" x2="806" y1="32.29" y2="32.29"/><line style="stroke:#181818;stroke-width:1.0;" x1="806" x2="806" y1="32.29" y2="560.37"/><text fill="#000000" font-family="sans-serif" font-size="14" font-weight="bold" lengthAdjust="spacing" textLength="67" x="657.5" y="48.2851">Pgadmin</text></g><!--cluster 2567a5ec9705eb7ac2c984033e06189d--><g id="cluster_2567a5ec9705eb7ac2c984033e06189d"><polygon fill="none" points="1042,24.15,1052,14.15,1576,14.15,1576,550.37,1566,560.37,1042,560.37,1042,24.15" style="stroke:#181818;stroke-width:1.0;"/><line style="stroke:#181818;stroke-width:1.0;" x1="1566" x2="1576" y1="24.15" y2="14.15"/><line style="stroke:#181818;stroke-width:1.0;" x1="1042" x2="1566" y1="24.15" y2="24.15"/><line style="stroke:#181818;stroke-width:1.0;" x1="1566" x2="1566" y1="24.15" y2="560.37"/><text fill="#000000" font-family="sans-serif" font-size="14" font-weight="bold" lengthAdjust="spacing" textLength="35" x="1287.5" y="40.1451">Web</text></g><!--entity 355aeb7ac3f8fa43e8d94fbf0e4b8d6c--><g id="elem_355aeb7ac3f8fa43e8d94fbf0e4b8d6c"><rect fill="#F1F1F1" height="144.0781" rx="2.5" ry="2.5" style="stroke:#181818;stroke-width:0.5;" width="503" x="31.5" y="46"/><rect fill="#F1F1F1" height="10" style="stroke:#181818;stroke-width:0.5;" width="15" x="514.5" y="51"/><rect fill="#F1F1F1" height="2" style="stroke:#181818;stroke-width:0.5;" width="4" x="512.5" y="53"/><rect fill="#F1F1F1" height="2" style="stroke:#181818;stroke-width:0.5;" width="4" x="512.5" y="57"/><text fill="#000000" font-family="sans-serif" font-size="14" font-weight="bold" lengthAdjust="spacing" textLength="20" x="46.5" y="78.9951">db</text><text fill="#000000" font-family="sans-serif" font-size="14" lengthAdjust="spacing" textLength="4" x="46.5" y="95.292">&#160;</text><text fill="#000000" font-family="sans-serif" font-size="14" lengthAdjust="spacing" textLength="113" x="46.5" y="111.5889">image: postgres</text><text fill="#000000" font-family="sans-serif" font-size="14" lengthAdjust="spacing" textLength="362" x="46.5" y="127.8857">environment: POSTGRES_DB=${DATABASE_NAME}</text><text fill="#000000" font-family="sans-serif" font-size="14" lengthAdjust="spacing" textLength="377" x="46.5" y="144.1826">environment: POSTGRES_USER=${DATABASE_USER}</text><text fill="#000000" font-family="sans-serif" font-size="14" lengthAdjust="spacing" textLength="463" x="46.5" y="160.4795">environment: POSTGRES_PASSWORD=${DATABASE_PASSWORD}</text><text fill="#000000" font-family="sans-serif" font-size="14" lengthAdjust="spacing" textLength="4" x="46.5" y="176.7764">&#160;</text></g><!--entity d5baecb173d637b4e1f821d6b00b6f89--><g id="elem_d5baecb173d637b4e1f821d6b00b6f89"><rect fill="#F1F1F1" height="39.2969" rx="2.5" ry="2.5" style="stroke:#181818;stroke-width:0.5;" width="189" x="188.5" y="505.08"/><polygon fill="#F1F1F1" points="360.5,510.08,360.5,524.08,372.5,524.08,372.5,516.08,366.5,510.08,360.5,510.08" style="stroke:#181818;stroke-width:0.5;"/><line style="stroke:#181818;stroke-width:0.5;" x1="366.5" x2="366.5" y1="510.08" y2="516.08"/><line style="stroke:#181818;stroke-width:0.5;" x1="372.5" x2="366.5" y1="516.08" y2="516.08"/><text fill="#000000" font-family="sans-serif" font-size="14" lengthAdjust="spacing" textLength="159" x="198.5" y="531.0751">/var/lib/postgresql/data</text></g><!--entity 12837e494536012bad3f0b8ab75b14bb--><g id="elem_12837e494536012bad3f0b8ab75b14bb"><rect fill="#F1F1F1" height="111.4844" rx="2.5" ry="2.5" style="stroke:#181818;stroke-width:0.5;" width="209" x="590.5" y="62.29"/><rect fill="#F1F1F1" height="10" style="stroke:#181818;stroke-width:0.5;" width="15" x="779.5" y="67.29"/><rect fill="#F1F1F1" height="2" style="stroke:#181818;stroke-width:0.5;" width="4" x="777.5" y="69.29"/><rect fill="#F1F1F1" height="2" style="stroke:#181818;stroke-width:0.5;" width="4" x="777.5" y="73.29"/><text fill="#000000" font-family="sans-serif" font-size="14" font-weight="bold" lengthAdjust="spacing" textLength="149" x="605.5" y="95.2851">pgadmin_container</text><text fill="#000000" font-family="sans-serif" font-size="14" lengthAdjust="spacing" textLength="4" x="605.5" y="111.582">&#160;</text><text fill="#000000" font-family="sans-serif" font-size="14" lengthAdjust="spacing" textLength="169" x="605.5" y="127.8789">image: dpage/pgadmin4</text><text fill="#000000" font-family="sans-serif" font-size="14" lengthAdjust="spacing" textLength="163" x="605.5" y="144.1757">restart: unless-stopped</text><text fill="#000000" font-family="sans-serif" font-size="14" lengthAdjust="spacing" textLength="4" x="605.5" y="160.4726">&#160;</text></g><!--entity bf68e6ab131f5ab4efb2d44db4301fa3--><g id="elem_bf68e6ab131f5ab4efb2d44db4301fa3"><ellipse cx="765" cy="280.08" fill="#F1F1F1" rx="8" ry="8" style="stroke:#181818;stroke-width:0.5;"/><text fill="#000000" font-family="sans-serif" font-size="14" lengthAdjust="spacing" textLength="18" x="756" y="310.0751">80</text></g><!--entity d3567e22bc017a8e9651a28e51f76672--><g id="elem_d3567e22bc017a8e9651a28e51f76672"><rect fill="#F1F1F1" height="39.2969" rx="2.5" ry="2.5" style="stroke:#181818;stroke-width:0.5;" width="140" x="625" y="505.08"/><polygon fill="#F1F1F1" points="748,510.08,748,524.08,760,524.08,760,516.08,754,510.08,748,510.08" style="stroke:#181818;stroke-width:0.5;"/><line style="stroke:#181818;stroke-width:0.5;" x1="754" x2="754" y1="510.08" y2="516.08"/><line style="stroke:#181818;stroke-width:0.5;" x1="760" x2="754" y1="516.08" y2="516.08"/><text fill="#000000" font-family="sans-serif" font-size="14" lengthAdjust="spacing" textLength="110" x="635" y="531.0751">/var/lib/pgadmin</text></g><!--entity 04a565d19766ebe0348853b17c395bd1--><g id="elem_04a565d19766ebe0348853b17c395bd1"><rect fill="#F1F1F1" height="127.7813" rx="2.5" ry="2.5" style="stroke:#181818;stroke-width:0.5;" width="503" x="1057.5" y="54.15"/><rect fill="#F1F1F1" height="10" style="stroke:#181818;stroke-width:0.5;" width="15" x="1540.5" y="59.15"/><rect fill="#F1F1F1" height="2" style="stroke:#181818;stroke-width:0.5;" width="4" x="1538.5" y="61.15"/><rect fill="#F1F1F1" height="2" style="stroke:#181818;stroke-width:0.5;" width="4" x="1538.5" y="65.15"/><text fill="#000000" font-family="sans-serif" font-size="14" font-weight="bold" lengthAdjust="spacing" textLength="34" x="1072.5" y="87.1451">web</text><text fill="#000000" font-family="sans-serif" font-size="14" lengthAdjust="spacing" textLength="4" x="1072.5" y="103.442">&#160;</text><text fill="#000000" font-family="sans-serif" font-size="14" lengthAdjust="spacing" textLength="381" x="1072.5" y="119.7389">environment: POSTGRES_NAME=${DATABASE_NAME}</text><text fill="#000000" font-family="sans-serif" font-size="14" lengthAdjust="spacing" textLength="377" x="1072.5" y="136.0357">environment: POSTGRES_USER=${DATABASE_USER}</text><text fill="#000000" font-family="sans-serif" font-size="14" lengthAdjust="spacing" textLength="463" x="1072.5" y="152.3326">environment: POSTGRES_PASSWORD=${DATABASE_PASSWORD}</text><text fill="#000000" font-family="sans-serif" font-size="14" lengthAdjust="spacing" textLength="4" x="1072.5" y="168.6295">&#160;</text></g><!--entity fd433df176955d196b161b0a41a19970--><g id="elem_fd433df176955d196b161b0a41a19970"><ellipse cx="1452" cy="280.08" fill="#F1F1F1" rx="8" ry="8" style="stroke:#181818;stroke-width:0.5;"/><text fill="#000000" font-family="sans-serif" font-size="14" lengthAdjust="spacing" textLength="36" x="1434" y="310.0751">8000</text></g><!--entity 4ae8434c535c76df893919c2b9c9c766--><g id="elem_4ae8434c535c76df893919c2b9c9c766"><rect fill="#F1F1F1" height="39.2969" rx="2.5" ry="2.5" style="stroke:#181818;stroke-width:0.5;" width="70" x="1274" y="505.08"/><polygon fill="#F1F1F1" points="1327,510.08,1327,524.08,1339,524.08,1339,516.08,1333,510.08,1327,510.08" style="stroke:#181818;stroke-width:0.5;"/><line style="stroke:#181818;stroke-width:0.5;" x1="1333" x2="1333" y1="510.08" y2="516.08"/><line style="stroke:#181818;stroke-width:0.5;" x1="1339" x2="1333" y1="516.08" y2="516.08"/><text fill="#000000" font-family="sans-serif" font-size="14" lengthAdjust="spacing" textLength="40" x="1284" y="531.0751">/code</text></g><!--entity 8f43cdaa51c57c85a87f1e538692f2cc--><g id="elem_8f43cdaa51c57c85a87f1e538692f2cc"><rect fill="#F1F1F1" height="39.2969" rx="2.5" ry="2.5" style="stroke:#181818;stroke-width:0.5;" width="92" x="237" y="623.37"/><polygon fill="#F1F1F1" points="312,628.37,312,642.37,324,642.37,324,634.37,318,628.37,312,628.37" style="stroke:#181818;stroke-width:0.5;"/><line style="stroke:#181818;stroke-width:0.5;" x1="318" x2="318" y1="628.37" y2="634.37"/><line style="stroke:#181818;stroke-width:0.5;" x1="324" x2="318" y1="634.37" y2="634.37"/><text fill="#000000" font-family="sans-serif" font-size="14" lengthAdjust="spacing" textLength="62" x="247" y="649.3651">./data/db</text></g><!--entity 526ed9e7c4188285d2aaadfbc19d9ac7--><g id="elem_526ed9e7c4188285d2aaadfbc19d9ac7"><rect fill="#F1F1F1" height="39.2969" rx="2.5" ry="2.5" style="stroke:#181818;stroke-width:0.5;" width="90" x="650" y="623.37"/><polygon fill="#F1F1F1" points="723,628.37,723,642.37,735,642.37,735,634.37,729,628.37,723,628.37" style="stroke:#181818;stroke-width:0.5;"/><line style="stroke:#181818;stroke-width:0.5;" x1="729" x2="729" y1="628.37" y2="634.37"/><line style="stroke:#181818;stroke-width:0.5;" x1="735" x2="729" y1="634.37" y2="634.37"/><text fill="#000000" font-family="sans-serif" font-size="14" lengthAdjust="spacing" textLength="60" x="660" y="649.3651">pgadmin</text></g><!--entity 58b9e70b65a77700ba66e9c64d6b9f89--><g id="elem_58b9e70b65a77700ba66e9c64d6b9f89"><rect fill="#F1F1F1" height="39.2969" rx="2.5" ry="2.5" style="stroke:#181818;stroke-width:0.5;" width="34" x="1292" y="623.37"/><polygon fill="#F1F1F1" points="1309,628.37,1309,642.37,1321,642.37,1321,634.37,1315,628.37,1309,628.37" style="stroke:#181818;stroke-width:0.5;"/><line style="stroke:#181818;stroke-width:0.5;" x1="1315" x2="1315" y1="628.37" y2="634.37"/><line style="stroke:#181818;stroke-width:0.5;" x1="1321" x2="1315" y1="634.37" y2="634.37"/><text fill="#000000" font-family="sans-serif" font-size="14" lengthAdjust="spacing" textLength="4" x="1302" y="649.3651">.</text></g><!--entity c2042afc4e5890500f32d16d8510f966--><g id="elem_c2042afc4e5890500f32d16d8510f966"><ellipse cx="929" cy="415.08" fill="#F1F1F1" rx="8" ry="8" style="stroke:#181818;stroke-width:0.5;"/><text fill="#000000" font-family="sans-serif" font-size="14" lengthAdjust="spacing" textLength="179" x="839.5" y="445.0751">${PGADMIN_PORT-5051}</text></g><!--entity 1624c420083928ef3e240dd88f2e52f0--><g id="elem_1624c420083928ef3e240dd88f2e52f0"><ellipse cx="1619" cy="415.08" fill="#F1F1F1" rx="8" ry="8" style="stroke:#181818;stroke-width:0.5;"/><text fill="#000000" font-family="sans-serif" font-size="14" lengthAdjust="spacing" textLength="36" x="1601" y="445.0751">8000</text></g><!--link d5baecb173d637b4e1f821d6b00b6f89 to 8f43cdaa51c57c85a87f1e538692f2cc--><g id="link_d5baecb173d637b4e1f821d6b00b6f89_8f43cdaa51c57c85a87f1e538692f2cc"><path codeLine="42" d="M283,544.67 C283,566.29 283,601.46 283,623.09 " fill="none" id="d5baecb173d637b4e1f821d6b00b6f89-8f43cdaa51c57c85a87f1e538692f2cc" style="stroke:#181818;stroke-width:1.0;"/><text fill="#000000" font-family="sans-serif" font-size="13" lengthAdjust="spacing" textLength="14" x="284" y="589.4369">rw</text></g><!--link 355aeb7ac3f8fa43e8d94fbf0e4b8d6c to d5baecb173d637b4e1f821d6b00b6f89--><g id="link_355aeb7ac3f8fa43e8d94fbf0e4b8d6c_d5baecb173d637b4e1f821d6b00b6f89"><path codeLine="43" d="M283,190.46 C283,285.98 283,443.74 283,498.94 " fill="none" id="355aeb7ac3f8fa43e8d94fbf0e4b8d6c-to-d5baecb173d637b4e1f821d6b00b6f89" style="stroke:#181818;stroke-width:1.0;stroke-dasharray:7.0,7.0;"/><polygon fill="#181818" points="283,504.94,287,495.94,283,499.94,279,495.94,283,504.94" style="stroke:#181818;stroke-width:1.0;"/><text fill="#000000" font-family="sans-serif" font-size="13" lengthAdjust="spacing" textLength="23" x="284" y="352.1469">use</text></g><!--link 12837e494536012bad3f0b8ab75b14bb to bf68e6ab131f5ab4efb2d44db4301fa3--><g id="link_12837e494536012bad3f0b8ab75b14bb_bf68e6ab131f5ab4efb2d44db4301fa3"><path codeLine="44" d="M719.09,174.11 C734.83,210.1 753.84,253.56 761.53,271.13 " fill="none" id="12837e494536012bad3f0b8ab75b14bb-bf68e6ab131f5ab4efb2d44db4301fa3" style="stroke:#181818;stroke-width:1.0;"/></g><!--link bf68e6ab131f5ab4efb2d44db4301fa3 to c2042afc4e5890500f32d16d8510f966--><g id="link_bf68e6ab131f5ab4efb2d44db4301fa3_c2042afc4e5890500f32d16d8510f966"><path codeLine="45" d="M773.82,288.23 C802.29,311.32 891.6,383.75 920.14,406.89 " fill="none" id="bf68e6ab131f5ab4efb2d44db4301fa3-c2042afc4e5890500f32d16d8510f966" style="stroke:#181818;stroke-width:1.0;"/></g><!--link d3567e22bc017a8e9651a28e51f76672 to 526ed9e7c4188285d2aaadfbc19d9ac7--><g id="link_d3567e22bc017a8e9651a28e51f76672_526ed9e7c4188285d2aaadfbc19d9ac7"><path codeLine="46" d="M695,544.67 C695,566.29 695,601.46 695,623.09 " fill="none" id="d3567e22bc017a8e9651a28e51f76672-526ed9e7c4188285d2aaadfbc19d9ac7" style="stroke:#181818;stroke-width:1.0;"/><text fill="#000000" font-family="sans-serif" font-size="13" lengthAdjust="spacing" textLength="14" x="696" y="589.4369">rw</text></g><!--link 12837e494536012bad3f0b8ab75b14bb to d3567e22bc017a8e9651a28e51f76672--><g id="link_12837e494536012bad3f0b8ab75b14bb_d3567e22bc017a8e9651a28e51f76672"><path codeLine="47" d="M695,174.04 C695,265.88 695,440.2 695,498.82 " fill="none" id="12837e494536012bad3f0b8ab75b14bb-to-d3567e22bc017a8e9651a28e51f76672" style="stroke:#181818;stroke-width:1.0;stroke-dasharray:7.0,7.0;"/><polygon fill="#181818" points="695,504.82,699,495.82,695,499.82,691,495.82,695,504.82" style="stroke:#181818;stroke-width:1.0;"/><text fill="#000000" font-family="sans-serif" font-size="13" lengthAdjust="spacing" textLength="23" x="696" y="352.1469">use</text></g><!--link 04a565d19766ebe0348853b17c395bd1 to fd433df176955d196b161b0a41a19970--><g id="link_04a565d19766ebe0348853b17c395bd1_fd433df176955d196b161b0a41a19970"><path codeLine="48" d="M1365.52,182.29 C1396.12,216.54 1430.56,255.08 1445.02,271.26 " fill="none" id="04a565d19766ebe0348853b17c395bd1-fd433df176955d196b161b0a41a19970" style="stroke:#181818;stroke-width:1.0;"/></g><!--link fd433df176955d196b161b0a41a19970 to 1624c420083928ef3e240dd88f2e52f0--><g id="link_fd433df176955d196b161b0a41a19970_1624c420083928ef3e240dd88f2e52f0"><path codeLine="49" d="M1460.98,288.23 C1490.11,311.43 1581.77,384.42 1610.38,407.21 " fill="none" id="fd433df176955d196b161b0a41a19970-1624c420083928ef3e240dd88f2e52f0" style="stroke:#181818;stroke-width:1.0;"/></g><!--link 4ae8434c535c76df893919c2b9c9c766 to 58b9e70b65a77700ba66e9c64d6b9f89--><g id="link_4ae8434c535c76df893919c2b9c9c766_58b9e70b65a77700ba66e9c64d6b9f89"><path codeLine="50" d="M1309,544.67 C1309,566.29 1309,601.46 1309,623.09 " fill="none" id="4ae8434c535c76df893919c2b9c9c766-58b9e70b65a77700ba66e9c64d6b9f89" style="stroke:#181818;stroke-width:1.0;"/><text fill="#000000" font-family="sans-serif" font-size="13" lengthAdjust="spacing" textLength="14" x="1310" y="589.4369">rw</text></g><!--link 04a565d19766ebe0348853b17c395bd1 to 4ae8434c535c76df893919c2b9c9c766--><g id="link_04a565d19766ebe0348853b17c395bd1_4ae8434c535c76df893919c2b9c9c766"><path codeLine="51" d="M1309,182.27 C1309,276.3 1309,442.02 1309,498.88 " fill="none" id="04a565d19766ebe0348853b17c395bd1-to-4ae8434c535c76df893919c2b9c9c766" style="stroke:#181818;stroke-width:1.0;stroke-dasharray:7.0,7.0;"/><polygon fill="#181818" points="1309,504.88,1313,495.88,1309,499.88,1305,495.88,1309,504.88" style="stroke:#181818;stroke-width:1.0;"/><text fill="#000000" font-family="sans-serif" font-size="13" lengthAdjust="spacing" textLength="23" x="1310" y="352.1469">use</text></g><!--SRC=[nPHDQnin48Rl-oiMaqCRYAslqKUW1GU7q4CR4wVaK4eOQQHWiDUkxII5aFzUxMxSEf2WO_5XyVBEQERH-ouk5gl7vVptlBchcXN5UZ3nWngtDHb348599AwaIs01Wt9AQEibS5y_LNLOBTUh9ZQxMW9Wz0Q3J3QXaj6IKyad5fMtf4Fzepe-9dzyN5Np9Tx5qtgzskxkDd5RnUPXlbarozpcj9vUpgulhivdjvEpJqTFa_7r-6myEx_zDlvw_loEylli_EfGs_v_JpiTpsOtbrUJG_t-tNDL_Qnmivid3BjwC7h0pMWnzwFzeByM8y8Tzd30OmoU6qbQ6gyYJrPmqfunhvDrrVCBpEaTqdBUT4LUInA28QeKyiyB3vOpmvqsoZ5ohuboOQM96JX8pRZmI38nRz4Ry5nvtn5Tz-rlmwhPuRo9cmF0jCwFqOj2LNc3NTxkjBvl5d6xFTdkLkjrf7Rf3n_hWMNzZ4dRgD5poHDWNYoFIKgHLvBnXF9DG0SxaWHjeX0-C6xGHgU1ex0HU39Q6_4Np4tiRIQo7Y46PnXq1XB1MSMaZ4npw-Wr5AOGD11tkLdqaKbbBSXy3q4wyCGxA8-nyzdR3cYTz5-SrKDcFUP4IafAt6W7xJhQSyqzGyMHkupY47F8lBeYXT4ggG9824PJjfbqt0NXNN3vXSvi_vKDExEEgATiavA14847C24dsPh48qYhdKWYX8F2mzi4eIEvQ8BYrWeB912HaW_SaSDW3i_h2wpFyfm1G6DC3WFcUt91gnmDr-QYfN3qDBqOJxv- -NOxlRowFW46_Bch3e8fWIce2DOnO2n9GLoJ1SwIomk-OiYrK449ngnqsM59Hg4OaRL9H129LQMGrYTqKYHJdzQ3pUEWAdxWXaCQ3ZyNlmnjl_jj75J5VBVJ5UDO4dHTYbnBgUswbCom9rLSR4-gTEYUL37qxNJ5H9K4NPUYfqePx4aLKh0dLLpiXLJnq1TIVm00]--></g></svg>